<?xml version="1.0" encoding="utf-8"?>
<!-- Generator: Adobe Illustrator 24.3.0, SVG Export Plug-In . SVG Version: 6.00 Build 0)  -->
<svg version="1.1" xmlns="http://www.w3.org/2000/svg" xmlns:xlink="http://www.w3.org/1999/xlink" x="0px" y="0px"
	 viewBox="0 0 504 504" style="enable-background:new 0 0 504 504;" xml:space="preserve">
<style type="text/css">
	.st0{fill:#FFFFFF;}
	.st1{fill:#002957;}
	.st2{fill:url(#SVGID_1_);}
</style>
<g id="Layer_2">
	<circle class="st0" cx="252" cy="252" r="65.2"/>
</g>
<g id="Layer_1">
	<path class="st1" d="M245,198c-0.6,0-1.1,0.5-1.1,1.1v9.5c0,0.5-0.4,0.8-0.8,0.9c-1.6,0.3-3.1,0.7-4.6,1.2c-0.4,0.1-0.9,0-1.2-0.4
		l-5.6-7.9c-0.3-0.4-0.9-0.5-1.3-0.3l-10.7,6.2c-0.4,0.3-0.6,0.8-0.4,1.3l4,8.8c0.2,0.4,0.1,0.9-0.3,1.2c-1.2,1.1-2.3,2.2-3.4,3.4
		c-0.3,0.3-0.8,0.5-1.2,0.3l-8.8-4c-0.5-0.2-1,0-1.3,0.4l-6.2,10.7c-0.3,0.4-0.1,1,0.3,1.3l7.9,5.6c0.4,0.3,0.5,0.8,0.4,1.2
		c-0.5,1.5-0.9,3.1-1.2,4.6c-0.1,0.5-0.5,0.8-0.9,0.8l-9.6,0.9c-0.5,0-0.9,0.5-0.9,1v12.4c0,0.5,0.4,0.9,0.9,1l9.6,0.9
		c0.5,0,0.8,0.4,0.9,0.8c0.3,1.6,0.7,3.1,1.2,4.6c0.1,0.4,0,0.9-0.4,1.2l-7.9,5.6c-0.4,0.3-0.5,0.9-0.3,1.3l6.2,10.7
		c0.3,0.4,0.8,0.6,1.3,0.4l8.8-4c0.4-0.2,0.9-0.1,1.2,0.3c1.1,1.2,2.2,2.3,3.4,3.4c0.3,0.3,0.5,0.8,0.3,1.2l-4,8.8
		c-0.2,0.5,0,1,0.4,1.3l10.7,6.2c0.4,0.3,1,0.1,1.3-0.3l5.6-7.9c0.3-0.4,0.8-0.5,1.2-0.4c1.5,0.5,3.1,0.9,4.6,1.2
		c0.5,0.1,0.8,0.5,0.8,0.9l0.9,9.6c0,0.5,0.5,0.9,1,0.9h12.4c0.5,0,0.9-0.4,1-0.9l0.9-9.6c0-0.5,0.4-0.8,0.8-0.9
		c1.6-0.3,3.1-0.7,4.6-1.2c0.4-0.1,0.9,0,1.2,0.4l5.6,7.9c0.3,0.4,0.9,0.5,1.3,0.3l10.7-6.2c0.4-0.3,0.6-0.8,0.4-1.3l-4-8.8
		c-0.2-0.4-0.1-0.9,0.3-1.2c1.2-1.1,2.3-2.2,3.4-3.4c0.3-0.3,0.8-0.5,1.2-0.3l8.8,4c0.5,0.2,1,0,1.3-0.4l6.2-10.7
		c0.3-0.4,0.1-1-0.3-1.3l-7.9-5.6c-0.4-0.3-0.5-0.8-0.4-1.2c0.5-1.5,0.9-3.1,1.2-4.6c0.1-0.5,0.5-0.8,0.9-0.8h9.5
		c0.6,0,1.1-0.5,1.1-1.1v-7c0-29.8-24.2-54-54-54H245z"/>
	<g>
		
			<linearGradient id="SVGID_1_" gradientUnits="userSpaceOnUse" x1="257.15" y1="219.5935" x2="257.15" y2="294.7174" gradientTransform="matrix(1 0 0 -1 0 504)">
			<stop  offset="0" style="stop-color:#008145"/>
			<stop  offset="0.193" style="stop-color:#00924C"/>
			<stop  offset="0.432" style="stop-color:#3FA554"/>
			<stop  offset="0.6539" style="stop-color:#66B55A"/>
			<stop  offset="0.8501" style="stop-color:#7CC05F"/>
			<stop  offset="1" style="stop-color:#84C661"/>
		</linearGradient>
		<path class="st2" d="M255.8,209.3c-0.5,0-0.9,0.4-0.9,0.9v8.4c0,0.6-0.5,1.1-1.1,1.1H251c-9.7,0.3-18.3,4.8-24,11.8
			c-1.3,1.6-2.5,3.3-3.5,5.2c-1,1.8-1.8,3.8-2.5,5.8c-0.9,3-1.5,6.3-1.5,9.6l0,0l0,0l0,0c0,17.9,14.5,32.4,32.4,32.4l0,0l0,0l0,0
			c10.4,0,18.9-8.5,18.9-18.9c0-7.4-6.1-13.5-13.5-13.5c-5.2,0-9.5,4.2-9.5,9.5c0,3.5,2.9,6.4,6.4,6.4c2,0,3.7-1.5,4.1-3.4
			c0.1-0.4,0.5-0.7,0.9-0.6c2.8,0.6,4,4.2,2,6.4c-1.7,1.9-4.2,3-7,3c-6.5,0-11.8-5.3-11.8-11.8c0-8.2,6.7-14.9,14.9-14.9
			c4.8,0,9.2,1.8,12.6,4.8c0.5,0.4,1.1,0.6,1.7,0.6h22.2c0.6,0,1-0.5,1-1C294.4,229,277.3,211.2,255.8,209.3z"/>
	</g>
	<path class="st1" d="M278.8,246.7c-3.3,0-5.9-2.7-5.9-5.9c0-3.3,2.7-5.9,5.9-5.9c3.3,0,5.9,2.7,5.9,5.9
		C284.7,244.1,282,246.7,278.8,246.7z"/>
</g>
</svg>
